<svg width="34" height="45" viewBox="0 0 34 45" fill="none" xmlns="http://www.w3.org/2000/svg">
<path d="M21.09 11.448C20.855 11.2948 20.5849 11.204 20.305 11.184C20.0061 11.1395 19.7006 11.1854 19.428 11.316C19.3991 11.3318 19.3654 11.3363 19.3334 11.3285C19.3014 11.3208 19.2734 11.3013 19.255 11.274C19.2388 11.2468 19.2341 11.2143 19.2417 11.1835C19.2494 11.1528 19.2689 11.1264 19.296 11.11C19.6155 10.9511 19.9759 10.8936 20.329 10.945C20.6579 10.969 20.9744 11.0801 21.246 11.267C21.2701 11.2884 21.2852 11.3181 21.2884 11.3502C21.2915 11.3822 21.2825 11.4143 21.263 11.44C21.238 11.4621 21.2054 11.4739 21.172 11.473C21.1429 11.4723 21.1146 11.4636 21.09 11.448Z" fill="#1F1F39"/>
<path d="M14.576 11.431C14.5566 11.4053 14.5475 11.3732 14.5507 11.3412C14.5538 11.3091 14.5689 11.2794 14.593 11.258C14.8637 11.0694 15.1808 10.9584 15.51 10.937C15.8635 10.8854 16.2242 10.9429 16.544 11.102C16.5719 11.1199 16.5918 11.1479 16.5995 11.1802C16.6071 11.2125 16.6019 11.2465 16.585 11.275C16.5671 11.3032 16.5389 11.3232 16.5064 11.3309C16.4739 11.3386 16.4397 11.3332 16.411 11.316C16.1383 11.1869 15.8337 11.141 15.535 11.184C15.2552 11.2039 14.9851 11.2948 14.75 11.448C14.7284 11.4635 14.7026 11.4722 14.676 11.473C14.6387 11.4717 14.6031 11.4567 14.576 11.431Z" fill="#1F1F39"/>
<path d="M25.702 35.479L28.14 41.979C30.2593 40.9789 32.2316 39.6933 34.002 38.158C33.572 36.905 33.202 35.958 33.202 35.958L25.702 35.479Z" fill="#F9D2DD"/>
<path d="M6.55102 42.099L9.09702 35.306L1.60002 35.784C1.59202 35.792 1.14502 36.938 0.666016 38.373C2.44785 39.8786 4.42802 41.1323 6.55102 42.099Z" fill="#F9D2DD"/>
<path d="M25.702 35.479L26.545 37.688L33.984 38.15C33.579 36.988 33.202 35.957 33.202 35.957L25.702 35.479Z" fill="#F9ACC0"/>
<path d="M9.17301 35.067L8.32801 37.276L0.77301 38.01C1.17801 36.856 1.67301 35.545 1.67301 35.545L9.17301 35.067Z" fill="#F9ACC0"/>
<path d="M8.86501 25.305C5.59201 26.781 1.99601 31.365 0.674011 36.74H6.52601L5.55901 41.62C9.16312 43.4569 13.1518 44.4121 17.197 44.407C21.2596 44.4135 25.2654 43.4537 28.884 41.607L27.859 37.378L33.777 36.85C33.777 36.858 32.413 29.274 26.177 25.687C21.189 22.807 13.474 23.24 8.86501 25.305Z" fill="#3D5CFF"/>
<path d="M8.12203 31.217L4.64203 36.749L6.61703 36.741L8.12203 31.217Z" fill="#224BF4"/>
<path d="M27.868 37.375L29.628 37.224L25.702 30.524L27.868 37.375Z" fill="#224BF4"/>
<g opacity="0.451">
<g opacity="0.451">
<path opacity="0.451" d="M14.601 36.377C14.3729 36.3764 14.1501 36.3082 13.9607 36.1811C13.7713 36.0539 13.6239 35.8735 13.537 35.6625C13.4501 35.4516 13.4277 35.2197 13.4726 34.996C13.5174 34.7724 13.6276 34.567 13.7891 34.4059C13.9506 34.2449 14.1562 34.1352 14.38 34.091C14.6038 34.0467 14.8356 34.0697 15.0463 34.1571C15.257 34.2446 15.4371 34.3925 15.5637 34.5822C15.6904 34.7719 15.758 34.9949 15.758 35.223C15.7575 35.5294 15.6353 35.8231 15.4184 36.0395C15.2014 36.2559 14.9074 36.3773 14.601 36.377Z" fill="#F9EDC7"/>
<path opacity="0.451" d="M20.015 34.192C19.7869 34.1914 19.5641 34.1232 19.3747 33.9961C19.1853 33.8689 19.0379 33.6885 18.951 33.4775C18.8641 33.2666 18.8417 33.0347 18.8866 32.811C18.9314 32.5874 19.0416 32.382 19.2031 32.2209C19.3646 32.0599 19.5702 31.9502 19.794 31.906C20.0178 31.8617 20.2496 31.8847 20.4603 31.9721C20.671 32.0596 20.8511 32.2075 20.9777 32.3972C21.1044 32.5869 21.172 32.8099 21.172 33.038C21.1715 33.3444 21.0493 33.6381 20.8324 33.8545C20.6154 34.0709 20.3214 34.1923 20.015 34.192Z" fill="#F9EDC7"/>
<path opacity="0.451" d="M10.593 30.318C10.3649 30.3174 10.1421 30.2492 9.95271 30.1221C9.76333 29.9949 9.61589 29.8145 9.529 29.6035C9.44212 29.3926 9.41969 29.1607 9.46456 28.937C9.50942 28.7134 9.61957 28.508 9.78108 28.347C9.94258 28.1859 10.1482 28.0763 10.372 28.032C10.5958 27.9877 10.8276 28.0107 11.0383 28.0981C11.249 28.1856 11.4291 28.3335 11.5557 28.5232C11.6824 28.7129 11.75 28.9359 11.75 29.164C11.7495 29.4704 11.6273 29.7641 11.4104 29.9805C11.1934 30.1969 10.8994 30.3183 10.593 30.318Z" fill="#F9EDC7"/>
<path opacity="0.451" d="M10.593 41.695C10.3649 41.6944 10.1421 41.6262 9.95271 41.499C9.76333 41.3719 9.61589 41.1914 9.529 40.9805C9.44212 40.7696 9.41969 40.5377 9.46456 40.314C9.50942 40.0904 9.61957 39.885 9.78108 39.7239C9.94258 39.5628 10.1482 39.4532 10.372 39.4089C10.5958 39.3647 10.8276 39.3877 11.0383 39.4751C11.249 39.5626 11.4291 39.7105 11.5557 39.9002C11.6824 40.0899 11.75 40.3129 11.75 40.541C11.7495 40.8474 11.6273 41.1411 11.4104 41.3575C11.1934 41.5739 10.8994 41.6953 10.593 41.695Z" fill="#F9EDC7"/>
<path opacity="0.451" d="M20.759 42.849C20.5309 42.8484 20.3081 42.7802 20.1187 42.6531C19.9293 42.5259 19.7819 42.3455 19.695 42.1346C19.6081 41.9236 19.5857 41.6917 19.6306 41.468C19.6754 41.2444 19.7856 41.039 19.9471 40.878C20.1086 40.7169 20.3142 40.6073 20.538 40.563C20.7618 40.5187 20.9936 40.5417 21.2043 40.6291C21.415 40.7166 21.5951 40.8645 21.7218 41.0542C21.8484 41.2439 21.916 41.4669 21.916 41.695C21.9155 42.0014 21.7933 42.2951 21.5764 42.5115C21.3594 42.7279 21.0654 42.8493 20.759 42.849Z" fill="#F9EDC7"/>
<path opacity="0.451" d="M30.016 37.985C29.7879 37.9844 29.5651 37.9162 29.3757 37.7891C29.1863 37.6619 29.0389 37.4815 28.952 37.2705C28.8651 37.0596 28.8427 36.8277 28.8875 36.604C28.9324 36.3804 29.0425 36.175 29.204 36.0139C29.3656 35.8529 29.5712 35.7432 29.795 35.699C30.0187 35.6547 30.2506 35.6777 30.4613 35.7651C30.672 35.8526 30.852 36.0005 30.9787 36.1902C31.1054 36.3799 31.173 36.6029 31.173 36.831C31.1725 37.1374 31.0503 37.4311 30.8333 37.6475C30.6164 37.8639 30.3224 37.9853 30.016 37.985Z" fill="#F9EDC7"/>
<path opacity="0.451" d="M2.90601 33.615C2.67789 33.6144 2.45508 33.5462 2.2657 33.4191C2.07632 33.2919 1.92887 33.1115 1.84199 32.9005C1.75511 32.6896 1.73268 32.4577 1.77755 32.234C1.82241 32.0104 1.93256 31.805 2.09406 31.6439C2.25557 31.4829 2.4612 31.3732 2.68497 31.329C2.90874 31.2847 3.14062 31.3077 3.35131 31.3951C3.562 31.4826 3.74206 31.6305 3.86873 31.8202C3.9954 32.0099 4.063 32.2329 4.06301 32.461C4.06248 32.7674 3.94031 33.0611 3.72336 33.2775C3.50641 33.4939 3.21242 33.6153 2.90601 33.615Z" fill="#F9EDC7"/>
<path opacity="0.451" d="M30.429 31.225C30.2009 31.2244 29.9781 31.1562 29.7887 31.029C29.5993 30.9019 29.4519 30.7214 29.365 30.5105C29.2781 30.2996 29.2557 30.0677 29.3006 29.844C29.3454 29.6204 29.4556 29.415 29.6171 29.2539C29.7786 29.0928 29.9842 28.9832 30.208 28.9389C30.4318 28.8947 30.6636 28.9177 30.8743 29.0051C31.085 29.0926 31.2651 29.2405 31.3917 29.4302C31.5184 29.6199 31.586 29.8429 31.586 30.071C31.5855 30.3774 31.4633 30.6711 31.2464 30.8875C31.0294 31.1039 30.7354 31.2253 30.429 31.225Z" fill="#F9EDC7"/>
<path opacity="0.451" d="M23.321 26.278C23.0929 26.2774 22.8701 26.2092 22.6807 26.0821C22.4913 25.9549 22.3439 25.7745 22.257 25.5635C22.1701 25.3526 22.1477 25.1207 22.1925 24.897C22.2374 24.6734 22.3475 24.468 22.509 24.3069C22.6706 24.1459 22.8762 24.0362 23.1 23.992C23.3237 23.9477 23.5556 23.9707 23.7663 24.0581C23.977 24.1456 24.157 24.2935 24.2837 24.4832C24.4104 24.6729 24.478 24.8959 24.478 25.124C24.4775 25.4304 24.3553 25.7241 24.1383 25.9405C23.9214 26.1569 23.6274 26.2783 23.321 26.278Z" fill="#F9EDC7"/>
</g>
</g>
<path d="M6.60001 36.831C6.57954 36.8249 6.5621 36.8114 6.55117 36.793C6.54024 36.7747 6.53661 36.7529 6.54101 36.732L8.19601 30.615C8.20208 30.5945 8.21564 30.5771 8.23398 30.5662C8.25233 30.5552 8.27411 30.5516 8.29501 30.556C8.3155 30.5623 8.33287 30.5761 8.34363 30.5946C8.35438 30.6132 8.35773 30.6351 8.35301 30.656L6.70001 36.774C6.69551 36.7903 6.6859 36.8048 6.67258 36.8152C6.65925 36.8256 6.64293 36.8315 6.62601 36.832L6.60001 36.831Z" fill="#1F1F39"/>
<path d="M27.71 37.375L25.594 30.52C25.5904 30.5102 25.5889 30.4997 25.5895 30.4893C25.5901 30.4788 25.5928 30.4686 25.5975 30.4592C25.6022 30.4499 25.6087 30.4416 25.6167 30.4348C25.6247 30.4281 25.634 30.423 25.644 30.42C25.6538 30.4164 25.6642 30.4148 25.6746 30.4154C25.6849 30.4159 25.6951 30.4185 25.7045 30.4231C25.7138 30.4277 25.7221 30.4341 25.7289 30.442C25.7357 30.4499 25.7408 30.4591 25.744 30.469L27.867 37.325C27.8706 37.3348 27.8721 37.3453 27.8715 37.3557C27.8709 37.3662 27.8682 37.3764 27.8635 37.3857C27.8588 37.3951 27.8523 37.4034 27.8443 37.4102C27.8363 37.4169 27.827 37.422 27.817 37.425C27.8 37.425 27.792 37.433 27.784 37.433C27.7671 37.4325 27.7507 37.4266 27.7374 37.4162C27.7241 37.4058 27.7145 37.3913 27.71 37.375Z" fill="#1F1F39"/>
<path d="M9.35303 6.40999C10.427 4.26699 11.915 4.10199 11.915 4.10199C12.4696 2.97251 13.3467 2.03286 14.4353 1.40185C15.524 0.770846 16.7753 0.476833 18.031 0.556993C22.742 0.556993 23.817 5.17399 23.817 5.17399C24.4142 5.36073 24.9363 5.73279 25.3078 6.23623C25.6793 6.73968 25.8807 7.34834 25.883 7.97399C25.8 10.117 23.8 15.039 23.8 15.039L10.592 12.429C10.592 12.429 8.27803 8.55699 9.35303 6.40999Z" fill="white"/>
<path d="M9.593 11.571C9.28454 11.7492 9.02132 11.9961 8.8238 12.2926C8.62628 12.589 8.49977 12.927 8.45411 13.2803C8.40845 13.6336 8.44487 13.9927 8.56053 14.3296C8.67619 14.6665 8.86798 14.9722 9.121 15.223C10.138 16.394 12.7 16.123 12.7 16.123L12.014 11.876C11.6772 11.6081 11.2732 11.4379 10.8463 11.3841C10.4193 11.3303 9.98572 11.395 9.593 11.571Z" fill="#F9ACC0"/>
<path d="M25.743 11.571C26.0506 11.75 26.3129 11.9973 26.5098 12.2938C26.7066 12.5903 26.8326 12.928 26.8782 13.281C26.9237 13.6339 26.8875 13.9926 26.7723 14.3294C26.6571 14.6661 26.4661 14.9718 26.214 15.223C25.197 16.394 22.635 16.122 22.635 16.122L23.321 11.876C23.6579 11.6079 24.0621 11.4376 24.4892 11.3838C24.9164 11.33 25.3502 11.3948 25.743 11.571Z" fill="#F9ACC0"/>
<path d="M12.229 15.256C12.1653 14.8007 11.9859 14.3693 11.708 14.003C11.3373 13.498 10.8121 13.1277 10.212 12.948C10.1862 12.9405 10.1641 12.9236 10.15 12.9007C10.136 12.8778 10.131 12.8504 10.136 12.824C10.1435 12.7977 10.1607 12.7753 10.1841 12.7612C10.2074 12.7471 10.2353 12.7424 10.262 12.748C10.9114 12.941 11.4781 13.3445 11.873 13.895C12.1779 14.2896 12.3694 14.7597 12.427 15.255C12.427 15.2815 12.4165 15.307 12.3977 15.3257C12.379 15.3445 12.3535 15.355 12.327 15.355C12.3005 15.355 12.2751 15.3445 12.2563 15.3257C12.2376 15.307 12.227 15.2815 12.227 15.255L12.229 15.256Z" fill="#1F1F39"/>
<path d="M23.428 15.14C23.403 15.1279 23.3837 15.1064 23.3743 15.0802C23.365 15.054 23.3663 15.0252 23.378 15C23.6526 14.4625 24.0006 13.9657 24.412 13.524C24.6894 13.1855 25.06 12.9358 25.478 12.806C25.491 12.8037 25.5043 12.804 25.5172 12.8069C25.5301 12.8098 25.5423 12.8152 25.5531 12.8228C25.5639 12.8304 25.573 12.8401 25.5801 12.8513C25.5871 12.8625 25.5918 12.875 25.594 12.888C25.5966 12.9012 25.5965 12.9148 25.5936 12.928C25.5908 12.9412 25.5854 12.9537 25.5776 12.9647C25.5699 12.9757 25.56 12.985 25.5485 12.9921C25.5371 12.9992 25.5243 13.004 25.511 13.006C25.1363 13.1328 24.8042 13.3613 24.552 13.666C24.1574 14.0899 23.8238 14.5669 23.561 15.083C23.5536 15.1016 23.541 15.1178 23.5247 15.1295C23.5083 15.1412 23.489 15.1479 23.469 15.149C23.4547 15.1509 23.4402 15.1477 23.428 15.14Z" fill="#1F1F39"/>
<path d="M12.427 16.113C12.8559 17.582 13.6996 18.8959 14.857 19.897L14.518 24.58C14.518 24.58 14.989 25.611 17.485 25.611C20.185 25.611 20.932 24.58 20.932 24.58L20.8 19.972C20.8 19.972 22.486 19.7 23.3 16.666C23.787 14.8031 23.9243 12.866 23.705 10.953C23.705 10.953 19.717 11.571 18.37 9.92199C17.023 8.27299 15.667 6.61599 13.708 7.44099C13.1475 7.71588 12.6927 8.1672 12.4136 8.72563C12.1345 9.28405 12.0465 9.91868 12.163 10.532C11.9358 12.3939 12.025 14.2808 12.427 16.113Z" fill="#F9D2DD"/>
<path d="M15.734 13.912C15.557 13.8957 15.3936 13.8104 15.2791 13.6745C15.1645 13.5387 15.1081 13.3632 15.122 13.186C15.1084 13.009 15.1649 12.8338 15.2795 12.6981C15.394 12.5624 15.5572 12.4773 15.734 12.461C15.9108 12.4773 16.074 12.5624 16.1886 12.6981C16.3031 12.8338 16.3596 13.009 16.346 13.186C16.3599 13.3632 16.3035 13.5387 16.1889 13.6745C16.0744 13.8104 15.911 13.8957 15.734 13.912Z" fill="#1F1F39"/>
<path d="M20.189 13.912C20.0121 13.8957 19.8486 13.8104 19.7341 13.6745C19.6196 13.5387 19.5631 13.3632 19.577 13.186C19.5634 13.009 19.62 12.8338 19.7345 12.6981C19.849 12.5624 20.0122 12.4773 20.189 12.461C20.3658 12.4773 20.5291 12.5624 20.6436 12.6981C20.7581 12.8338 20.8146 13.009 20.801 13.186C20.8149 13.3632 20.7585 13.5387 20.6439 13.6745C20.5294 13.8104 20.366 13.8957 20.189 13.912Z" fill="#1F1F39"/>
<path d="M17.493 14.184C17.7 14.596 18.237 14.39 18.237 14.39C18.237 14.39 17.7 14.25 17.7 13.838C17.7 13.426 17.659 12.016 17.659 12.016C17.4835 12.7244 17.4274 13.4571 17.493 14.184Z" fill="#1F1F39"/>
<path d="M14.667 23.31C14.708 23.297 19.139 21.587 19.973 20.804C19.973 20.326 19.99 19.971 19.99 19.971C19.1176 20.3436 18.1641 20.4855 17.221 20.383C16.4078 20.3869 15.6027 20.2214 14.857 19.897C14.867 20.317 14.708 23.145 14.667 23.31Z" fill="#F9ACC0"/>
<path d="M21.304 15.701C20.578 15.701 19.99 15.332 19.99 14.876C19.99 14.42 20.578 14.052 21.304 14.052C22.03 14.052 22.618 14.421 22.618 14.876C22.618 15.331 22.03 15.701 21.304 15.701Z" fill="#F9ACC0"/>
<path d="M14.353 15.701C13.627 15.701 13.039 15.332 13.039 14.876C13.039 14.42 13.627 14.052 14.353 14.052C15.079 14.052 15.667 14.421 15.667 14.876C15.667 15.331 15.079 15.701 14.353 15.701Z" fill="#F9ACC0"/>
<path d="M15.684 16.743C16.7478 17.0691 17.88 17.1018 18.9609 16.8378C20.0418 16.5738 21.0313 16.0228 21.825 15.243C22.792 14.163 22.825 10.692 22.825 10.692L23.833 10.362C23.833 10.362 24.102 16.823 22.792 18.562C22.1825 19.3404 21.3843 19.9504 20.4731 20.3342C19.5619 20.718 18.5678 20.8628 17.585 20.755C16.7446 20.7411 15.9196 20.5276 15.1781 20.132C14.4365 19.7365 13.7996 19.1702 13.32 18.48C12.002 16.743 11.502 10.697 11.502 10.697L12.163 9.543C12.163 9.543 12.702 15.99 15.684 16.743Z" fill="white"/>
<path d="M17.947 15.479C18.3017 15.3306 18.6355 15.1366 18.94 14.902C18.94 14.902 19.105 14.82 19.188 14.902C19.1249 15.1469 19.0115 15.376 18.855 15.5747C18.6985 15.7733 18.5023 15.9373 18.279 16.056C18.0555 16.13 17.8141 16.1299 17.5907 16.0557C17.3672 15.9814 17.1738 15.837 17.039 15.644C16.791 15.314 17.122 15.396 17.122 15.396C17.3873 15.4854 17.6693 15.5137 17.947 15.479Z" fill="#F95368"/>
</svg>
