<svg width="36" height="43" viewBox="0 0 36 43" fill="none" xmlns="http://www.w3.org/2000/svg">
<path d="M13.669 0.800013C10.893 2.23601 9.75502 6.24601 8.36302 8.39101C7.631 9.76067 6.59439 10.9441 5.33302 11.85C4.61115 12.3278 3.77287 12.6002 2.90802 12.638C2.90802 12.638 5.30802 18.662 14.553 19.722C23.798 20.782 28.753 17.656 30.629 16.377C31.8364 15.5034 32.835 14.3729 33.553 13.067C33.553 13.067 29.201 12.104 27.967 8.10201C26.733 4.10001 24.991 1.27301 22.294 0.826013C20.9434 0.492333 19.5187 0.640888 18.266 1.24601C17.6504 0.685697 16.8701 0.339505 16.0416 0.259123C15.2131 0.178741 14.3808 0.36848 13.669 0.800013Z" fill="#1F1F39"/>
<path d="M26.97 32.847L29.553 39.747C31.7978 38.6856 33.8865 37.3216 35.761 35.693C35.306 34.362 34.912 33.355 34.912 33.355L26.97 32.847Z" fill="#F9D2DD"/>
<path d="M6.682 39.878L9.379 32.663L1.437 33.171C1.429 33.18 0.955998 34.397 0.447998 35.92C2.33477 37.5188 4.43242 38.8506 6.682 39.878Z" fill="#F9D2DD"/>
<path d="M26.97 32.847L27.863 35.194L35.743 35.684C35.314 34.447 34.912 33.355 34.912 33.355L26.97 32.847Z" fill="#F9ACC0"/>
<path d="M9.46201 32.409L8.56201 34.756L0.562012 35.535C0.991012 34.309 1.51601 32.917 1.51601 32.917L9.46201 32.409Z" fill="#F9ACC0"/>
<path d="M9.13397 22.042C5.66697 23.609 1.85697 28.473 0.45697 34.186H6.65697L5.63197 39.373C9.44781 41.3217 13.6724 42.3349 17.957 42.329C22.2619 42.3348 26.5062 41.3142 30.338 39.352L29.257 34.86L35.526 34.3C35.526 34.309 34.081 26.253 27.479 22.444C22.189 19.389 14.02 19.844 9.13397 22.042Z" fill="#3D5CFF"/>
<path d="M8.34597 28.32L4.65997 34.195L6.75297 34.186L8.34597 28.32Z" fill="#224BF4"/>
<path d="M29.264 34.86L31.129 34.702L26.97 27.584L29.264 34.86Z" fill="#224BF4"/>
<path d="M6.73498 34.283C6.71317 34.2767 6.69455 34.2624 6.68287 34.2429C6.67119 34.2234 6.6673 34.2002 6.67198 34.178L8.42498 27.681C8.4313 27.6592 8.44564 27.6406 8.46511 27.6289C8.48459 27.6172 8.50776 27.6133 8.52998 27.618C8.55142 27.6248 8.56957 27.6393 8.58086 27.6587C8.59214 27.6781 8.59575 27.7011 8.59098 27.723L6.83998 34.218C6.83506 34.2353 6.82474 34.2506 6.81052 34.2615C6.7963 34.2725 6.77894 34.2786 6.76098 34.279L6.73498 34.283Z" fill="#1F1F39"/>
<path d="M29.098 34.861L26.856 27.585C26.8523 27.5746 26.8507 27.5635 26.8513 27.5524C26.852 27.5414 26.8549 27.5306 26.8599 27.5207C26.8648 27.5108 26.8717 27.502 26.8802 27.4948C26.8886 27.4876 26.8984 27.4823 26.909 27.479C26.9194 27.4754 26.9303 27.474 26.9413 27.4747C26.9522 27.4754 26.9629 27.4784 26.9727 27.4833C26.9825 27.4883 26.9912 27.4951 26.9983 27.5035C27.0054 27.5118 27.0107 27.5215 27.014 27.532L29.251 34.808C29.2546 34.8184 29.256 34.8293 29.2553 34.8403C29.2546 34.8512 29.2516 34.8619 29.2467 34.8717C29.2417 34.8815 29.2349 34.8902 29.2265 34.8973C29.2182 34.9044 29.2085 34.9097 29.198 34.913C29.189 34.913 29.181 34.922 29.172 34.922C29.1549 34.9206 29.1387 34.914 29.1254 34.9031C29.1122 34.8922 29.1026 34.8775 29.098 34.861Z" fill="#1F1F39"/>
<path d="M24.685 9.241C24.4422 9.33704 24.2127 9.46373 24.002 9.618C23.9998 9.13532 23.9735 8.65305 23.923 8.173L22.189 8.155L22.084 7.113L21.874 8.155L19.221 8.129L19.107 7.113L18.923 8.12L14.548 8.076L14.37 6.255L14.125 8.076L12.794 8.067C12.794 8.067 12.777 8.794 12.777 9.608C12.5643 9.45732 12.3351 9.33119 12.094 9.232C11.8202 9.11939 11.5211 9.08265 11.2282 9.12566C10.9353 9.16867 10.6594 9.28983 10.4296 9.4764C10.1997 9.66298 10.0244 9.90806 9.92203 10.1859C9.81969 10.4637 9.79412 10.7639 9.84802 11.055C9.81886 11.4088 9.87935 11.7642 10.0239 12.0884C10.1684 12.4127 10.3924 12.6952 10.675 12.91C11.4629 13.2817 12.3439 13.4099 13.205 13.278C13.2971 13.7981 13.4842 14.2967 13.757 14.749C14.243 15.5508 14.8654 16.2614 15.596 16.849V18.925L15.403 21.755C15.5819 21.8429 15.7663 21.9191 15.955 21.983C16.2066 22.0842 16.4675 22.1606 16.734 22.211C17.2772 22.3335 17.8322 22.3952 18.389 22.395C18.9462 22.4039 19.5024 22.3421 20.044 22.211C20.3115 22.1648 20.5728 22.0883 20.823 21.983C21.0118 21.9191 21.1962 21.8429 21.375 21.755L21.182 18.927V16.855C21.9126 16.2674 22.535 15.5568 23.021 14.755C23.2699 14.2861 23.4526 13.785 23.564 13.266C24.4232 13.3552 25.2913 13.2351 26.094 12.916C26.3786 12.7024 26.6042 12.4201 26.7497 12.0955C26.8952 11.7708 26.9559 11.4145 26.926 11.06C26.9789 10.7697 26.9527 10.4706 26.8503 10.1939C26.748 9.91716 26.5731 9.67306 26.344 9.48712C26.1149 9.30117 25.84 9.18022 25.5482 9.13693C25.2563 9.09363 24.9582 9.12958 24.685 9.241Z" fill="#F9D2DD"/>
<path d="M12.102 9.24101C11.8284 9.12879 11.5297 9.0923 11.2372 9.13535C10.9446 9.1784 10.6691 9.29941 10.4394 9.48569C10.2098 9.67196 10.0345 9.91661 9.93204 10.194C9.82956 10.4713 9.80364 10.7712 9.85699 11.062C9.82801 11.4156 9.88859 11.7709 10.0331 12.0949C10.1777 12.4189 10.4015 12.7013 10.684 12.916C11.4673 13.2829 12.3405 13.4139 13.197 13.293C13.197 13.293 13.022 12.316 12.891 11.343C12.8161 10.7705 12.7807 10.1934 12.785 9.61601C12.5722 9.46568 12.3431 9.33988 12.102 9.24101Z" fill="#F9ACC0"/>
<path d="M24.01 9.61599C24.0112 10.1633 23.9849 10.7103 23.931 11.255C23.818 12.253 23.59 13.269 23.59 13.269C24.4469 13.3563 25.3121 13.2352 26.112 12.916C26.3926 12.6994 26.6148 12.4162 26.7585 12.0922C26.9022 11.7681 26.9629 11.4134 26.935 11.06C26.9873 10.7694 26.9606 10.4702 26.8577 10.1935C26.7548 9.9168 26.5795 9.67279 26.3502 9.48695C26.1208 9.3011 25.8457 9.18024 25.5537 9.13698C25.2617 9.09371 24.9634 9.12963 24.69 9.24099C24.4484 9.33661 24.2199 9.46263 24.01 9.61599Z" fill="#F9ACC0"/>
<path d="M12.698 12.506C12.6306 12.0225 12.4405 11.5643 12.146 11.175C11.7536 10.6392 11.1972 10.2459 10.561 10.055C10.5337 10.0468 10.5104 10.0288 10.4956 10.0044C10.4808 9.98002 10.4756 9.95101 10.481 9.923C10.4892 9.89547 10.5074 9.87199 10.532 9.85718C10.5566 9.84238 10.5859 9.83732 10.614 9.843C11.3027 10.0484 11.9033 10.4773 12.321 11.062C12.6441 11.4815 12.847 11.981 12.908 12.507C12.908 12.5349 12.897 12.5616 12.8773 12.5812C12.8576 12.6009 12.8309 12.612 12.803 12.612C12.7752 12.612 12.7485 12.6009 12.7288 12.5812C12.7091 12.5616 12.698 12.5349 12.698 12.507V12.506Z" fill="#1F1F39"/>
<path d="M24.124 12.384C24.0974 12.371 24.077 12.3482 24.0671 12.3203C24.0572 12.2925 24.0586 12.2618 24.071 12.235C24.3602 11.6648 24.727 11.1375 25.161 10.668C25.4557 10.3077 25.8502 10.0423 26.295 9.905C26.3089 9.90164 26.3234 9.90132 26.3375 9.90406C26.3516 9.90681 26.3649 9.91255 26.3766 9.92089C26.3883 9.92924 26.398 9.94 26.4051 9.95244C26.4123 9.96489 26.4167 9.97872 26.418 9.993C26.4214 10.007 26.4217 10.0215 26.4189 10.0355C26.4162 10.0496 26.4104 10.0629 26.4021 10.0746C26.3938 10.0863 26.383 10.096 26.3706 10.1032C26.3581 10.1103 26.3443 10.1147 26.33 10.116C25.9329 10.2505 25.5811 10.4929 25.314 10.816C24.8946 11.2669 24.5401 11.7741 24.261 12.323C24.2529 12.3431 24.2391 12.3604 24.2214 12.3728C24.2036 12.3852 24.1826 12.3923 24.161 12.393C24.148 12.3937 24.1352 12.3906 24.124 12.384Z" fill="#1F1F39"/>
<path d="M22.049 13.417C21.28 13.417 20.657 13.025 20.657 12.542C20.657 12.059 21.28 11.666 22.049 11.666C22.818 11.666 23.441 12.058 23.441 12.542C23.441 13.026 22.818 13.417 22.049 13.417Z" fill="#F9ACC0"/>
<path d="M14.685 13.417C13.916 13.417 13.293 13.025 13.293 12.542C13.293 12.059 13.916 11.666 14.685 11.666C15.454 11.666 16.077 12.058 16.077 12.542C16.077 13.026 15.454 13.417 14.685 13.417Z" fill="#F9ACC0"/>
<path d="M16.655 17.211C16.29 17.1595 15.9338 17.0586 15.596 16.911V18.934L15.508 20.194C15.7784 20.1734 16.0441 20.1117 16.296 20.011C17.8457 19.2795 19.2678 18.3037 20.508 17.121C19.2289 17.2649 17.9395 17.295 16.655 17.211Z" fill="#F9ACC0"/>
<path d="M14.975 8.935C15.1247 8.82872 15.309 8.78299 15.491 8.807C15.6716 8.8203 15.8449 8.88406 15.991 8.991C16.0635 9.0451 16.1215 9.11616 16.16 9.19794C16.1986 9.27971 16.2164 9.3697 16.212 9.46C16.1544 9.31485 16.0484 9.19404 15.912 9.118C15.7778 9.0511 15.6324 9.00973 15.483 8.996C15.3372 8.98047 15.1898 9.00143 15.054 9.057C14.9144 9.13023 14.7965 9.23885 14.712 9.372C14.7229 9.28483 14.752 9.20091 14.7973 9.12564C14.8426 9.05038 14.9031 8.98544 14.975 8.935Z" fill="#1F1F39"/>
<path d="M20.841 9.057C20.9982 8.97041 21.1811 8.94241 21.357 8.978C21.4455 8.98947 21.5308 9.01836 21.608 9.063C21.6861 9.10687 21.7542 9.16646 21.808 9.238C21.9214 9.37097 21.9851 9.53926 21.988 9.714C21.9194 9.57434 21.8243 9.44936 21.708 9.346C21.6572 9.29701 21.5975 9.2583 21.532 9.232C21.497 9.223 21.471 9.206 21.436 9.197L21.331 9.171C21.188 9.14466 21.0408 9.15358 20.902 9.197C20.7512 9.23744 20.6148 9.31918 20.508 9.433C20.5658 9.26907 20.6852 9.13416 20.841 9.057Z" fill="#1F1F39"/>
<path d="M18.424 11.053C18.3307 11.2561 18.2658 11.4712 18.231 11.692C18.2236 11.7443 18.2206 11.7972 18.222 11.85C18.2257 11.9004 18.2344 11.9503 18.248 11.999C18.2719 12.0906 18.3285 12.1702 18.407 12.223C18.4984 12.279 18.6007 12.3148 18.707 12.328C18.8196 12.3471 18.934 12.3531 19.048 12.346C18.9369 12.3945 18.8173 12.4206 18.696 12.423C18.5688 12.4263 18.4427 12.3992 18.328 12.344C18.2062 12.2796 18.1149 12.1696 18.074 12.038C18.0536 11.9742 18.0418 11.9079 18.039 11.841C18.0376 11.7765 18.0406 11.7121 18.048 11.648C18.0887 11.4108 18.1717 11.1829 18.293 10.975C18.4063 10.7745 18.5444 10.589 18.704 10.423C18.608 10.633 18.512 10.843 18.424 11.053Z" fill="#1F1F39"/>
<path d="M16.2155 11.0725C16.2103 11.254 16.1342 11.4261 16.0036 11.5521C15.8729 11.6781 15.6981 11.7479 15.5166 11.7466C15.34 11.7046 15.1869 11.5952 15.09 11.4417C14.9931 11.2882 14.9602 11.1029 14.9984 10.9255C15.0036 10.744 15.0797 10.5719 15.2103 10.4459C15.341 10.3199 15.5158 10.2501 15.6973 10.2514C15.8739 10.2934 16.027 10.4028 16.1239 10.5563C16.2208 10.7098 16.2537 10.8951 16.2155 11.0725Z" fill="#1F1F39"/>
<path d="M21.8265 11.1885C21.8213 11.37 21.7452 11.5421 21.6145 11.6681C21.4839 11.7941 21.3091 11.8639 21.1276 11.8626C20.951 11.8206 20.7978 11.7112 20.7009 11.5577C20.6041 11.4042 20.5712 11.2189 20.6093 11.0415C20.6146 10.86 20.6906 10.6879 20.8213 10.5619C20.9519 10.4359 21.1268 10.3661 21.3082 10.3674C21.4848 10.4093 21.638 10.5188 21.7349 10.6723C21.8317 10.8258 21.8646 11.0111 21.8265 11.1885Z" fill="#1F1F39"/>
<path d="M18.205 13.181H19.011C19.177 13.181 19.37 13.181 19.633 13.19C19.6259 13.3146 19.5866 13.4352 19.519 13.54C19.4574 13.6439 19.3774 13.7357 19.283 13.811C19.0869 13.9689 18.8428 14.0554 18.591 14.056C18.4593 14.0549 18.3287 14.0312 18.205 13.986C18.082 13.9418 17.9689 13.8738 17.872 13.786C17.7772 13.6978 17.7028 13.59 17.654 13.47C17.61 13.3493 17.6009 13.2186 17.628 13.093C17.8171 13.1405 18.0103 13.17 18.205 13.181Z" fill="#DA5742"/>
<path d="M15.184 16.823C15.1657 16.8048 15.1547 16.7805 15.1531 16.7547C15.1514 16.7289 15.1592 16.7034 15.175 16.683C15.1925 16.6634 15.217 16.6515 15.2432 16.6498C15.2694 16.6482 15.2952 16.6568 15.315 16.674C16.2888 17.1652 17.3836 17.3648 18.468 17.249C18.4924 17.2478 18.5163 17.2564 18.5344 17.2728C18.5525 17.2892 18.5633 17.3121 18.5645 17.3365C18.5657 17.3609 18.5572 17.3848 18.5408 17.4029C18.5244 17.421 18.5014 17.4318 18.477 17.433C18.3469 17.4547 18.2149 17.4634 18.083 17.459C17.0756 17.5301 16.0691 17.3093 15.184 16.823Z" fill="#1F1F39"/>
<path opacity="0.55" d="M25.306 25.859C24.8042 25.6142 24.3827 25.2312 24.0911 24.755C23.7995 24.2788 23.6499 23.7293 23.66 23.171C23.5857 22.4366 23.6004 21.6959 23.704 20.965C23.7123 20.9192 23.7377 20.8783 23.775 20.8505C23.8123 20.8226 23.8587 20.81 23.905 20.815C23.9504 20.8236 23.9909 20.8489 24.0186 20.8859C24.0462 20.923 24.0588 20.9691 24.054 21.015C23.9563 21.7179 23.9432 22.43 24.015 23.136C24.0042 23.6307 24.1332 24.1183 24.3872 24.5429C24.6413 24.9675 25.01 25.3117 25.451 25.536C26.615 26.043 28.494 25.588 30.008 24.423C30.0264 24.4092 30.0473 24.3992 30.0696 24.3935C30.0918 24.3878 30.115 24.3865 30.1377 24.3898C30.1605 24.393 30.1824 24.4007 30.2022 24.4124C30.2219 24.4241 30.2392 24.4396 30.253 24.458C30.2668 24.4764 30.2768 24.4973 30.2825 24.5196C30.2882 24.5419 30.2895 24.565 30.2862 24.5878C30.283 24.6105 30.2753 24.6324 30.2636 24.6522C30.2519 24.672 30.2364 24.6892 30.218 24.703C29.185 25.5522 27.9032 26.0413 26.567 26.096C26.1349 26.1037 25.7058 26.023 25.306 25.859Z" fill="#EAEAFF"/>
<path opacity="0.55" d="M34.124 31.122L33.914 31.022C30.446 29.415 27.172 27.891 26.561 24.144C26.4365 23.4377 26.4297 22.7156 26.541 22.007C26.5444 21.9841 26.5523 21.9622 26.5644 21.9424C26.5765 21.9227 26.5925 21.9056 26.6114 21.8923C26.6303 21.8789 26.6517 21.8695 26.6743 21.8646C26.6969 21.8598 26.7203 21.8596 26.743 21.864C26.7654 21.8678 26.7869 21.8759 26.8061 21.888C26.8253 21.9002 26.8419 21.916 26.855 21.9346C26.868 21.9533 26.8772 21.9743 26.882 21.9965C26.8868 22.0187 26.8872 22.0417 26.883 22.064C26.7778 22.7364 26.7866 23.4216 26.909 24.091C27.496 27.655 30.683 29.143 34.071 30.711L34.281 30.811C34.3224 30.8323 34.3544 30.8683 34.3707 30.912C34.387 30.9556 34.3864 31.0038 34.369 31.047C34.3256 31.1015 34.2629 31.1372 34.194 31.147C34.1691 31.1441 34.1451 31.1356 34.124 31.122Z" fill="#EAEAFF"/>
<path opacity="0.55" d="M29.5 39.729L29.169 39.629C29.3462 38.9774 29.3745 38.2942 29.2518 37.6302C29.129 36.9661 28.8584 36.3382 28.46 35.793C27.1883 34.1806 25.4267 33.0255 23.441 32.502C22.3151 32.1274 21.1375 31.9314 19.951 31.921C19.1554 31.9164 18.3631 32.0248 17.598 32.243C16.9461 32.4285 16.3322 32.7281 15.785 33.128C16.416 33.19 17.085 33.236 17.675 33.276C21.075 33.522 24.294 33.753 25.058 36.044C25.2269 36.4698 25.2599 36.9374 25.1525 37.3827C25.0451 37.828 24.8025 38.2291 24.458 38.531C23.5624 39.2219 22.4534 39.5781 21.323 39.538H21.175C19.6821 39.5088 18.2117 39.1682 16.858 38.538C15.8889 38.1661 15.0638 37.4945 14.503 36.621C14.3057 36.2915 14.1872 35.9209 14.1568 35.538C14.1265 35.1552 14.185 34.7705 14.328 34.414C14.4774 34.0348 14.6973 33.6874 14.976 33.39C13.335 33.19 11.304 32.795 10.16 31.59C9.80113 31.202 9.53814 30.7353 9.3921 30.2274C9.24606 29.7194 9.22102 29.1844 9.31899 28.665C8.55185 28.6455 7.7862 28.5871 7.02499 28.49C5.76543 28.3645 4.54705 27.9722 3.45099 27.339L3.62699 27.033C4.67861 27.6421 5.84922 28.0173 7.05899 28.133C7.82891 28.2301 8.60322 28.2885 9.37899 28.308C9.69299 27.0662 10.3271 25.9283 11.218 25.008C12.0224 24.1067 13.0529 23.4367 14.203 23.067C14.5614 22.9604 14.9331 22.9049 15.307 22.902C16.0389 22.8955 16.7488 23.1525 17.307 23.626C17.5839 23.8412 17.7781 24.1453 17.857 24.487C17.9358 24.8287 17.8945 25.1872 17.74 25.502C17.3678 26.1191 16.8765 26.6558 16.2946 27.081C15.7127 27.5061 15.052 27.811 14.351 27.978C12.8485 28.4565 11.2787 28.6902 9.70199 28.67H9.67599C9.57733 29.1422 9.59177 29.6311 9.71811 30.0967C9.84446 30.5623 10.0791 30.9914 10.403 31.349C11.521 32.524 13.603 32.892 15.288 33.082C16.6184 32.0471 18.2718 31.5158 19.956 31.582C21.1795 31.5912 22.3941 31.7912 23.556 32.175C25.6114 32.7285 27.4333 33.9303 28.751 35.602C29.1728 36.1913 29.4585 36.867 29.5873 37.5802C29.7162 38.2934 29.685 39.0263 29.496 39.726L29.5 39.729ZM15.4 33.442C15.0671 33.7449 14.8067 34.1188 14.638 34.536C14.104 35.928 14.985 37.306 16.994 38.222C18.3279 38.8342 19.7736 39.1651 21.241 39.194C22.3092 39.2621 23.3652 38.935 24.208 38.275C24.5036 38.019 24.7115 37.6769 24.8026 37.2966C24.8938 36.9164 24.8635 36.5171 24.716 36.155C24.023 34.083 20.923 33.861 17.641 33.625C16.872 33.58 16.118 33.518 15.4 33.441V33.442ZM15.236 23.267C14.501 23.315 13.7843 23.5168 13.1322 23.8595C12.4802 24.2021 11.9074 24.6779 11.451 25.256C10.6266 26.1149 10.0341 27.1692 9.72899 28.32C11.2527 28.3409 12.7696 28.1132 14.22 27.646C15.536 27.3256 16.6759 26.5063 17.399 25.361C17.5247 25.1176 17.5602 24.8377 17.4992 24.5706C17.4383 24.3036 17.2848 24.0667 17.066 23.902C16.5505 23.4802 15.902 23.2552 15.236 23.267Z" fill="#EAEAFF"/>
</svg>
