<svg width="52" height="52" viewBox="0 0 52 52" fill="none" xmlns="http://www.w3.org/2000/svg">
<path d="M34.638 42.177L37.076 48.677C39.1953 47.6769 41.1676 46.3913 42.938 44.856C42.508 43.603 42.138 42.656 42.138 42.656L34.638 42.177Z" fill="#DA5742"/>
<path d="M15.487 48.797L18.033 42.004L10.536 42.482C10.528 42.49 10.081 43.636 9.60199 45.071C11.3838 46.5766 13.364 47.8303 15.487 48.797Z" fill="#DA5742"/>
<path d="M34.638 42.177L35.481 44.386L42.92 44.848C42.515 43.686 42.138 42.655 42.138 42.655L34.638 42.177Z" fill="#C43D28"/>
<path d="M18.11 41.765L17.264 43.974L9.70996 44.708C10.115 43.554 10.61 42.243 10.61 42.243L18.11 41.765Z" fill="#C43D28"/>
<path d="M17.794 32.003C14.521 33.487 10.933 38.071 9.61096 43.446H15.463L14.496 48.327C18.1029 50.1639 22.0942 51.1191 26.142 51.114C30.2059 51.1209 34.2127 50.1572 37.829 48.303L36.804 44.074L42.722 43.546C42.714 43.546 41.35 35.961 35.11 32.375C30.111 29.505 22.406 29.937 17.794 32.003Z" fill="#3D5CFF"/>
<path opacity="0.467" d="M18.719 38.599C18.574 40.982 18.446 43.356 18.306 45.739C18.231 47.066 18.149 48.393 18.074 49.712C18.066 49.869 18.314 49.869 18.322 49.712C18.463 47.338 18.603 44.972 18.735 42.597C18.867 40.222 19.008 37.848 19.148 35.474C19.222 34.163 19.305 32.852 19.379 31.542C19.387 31.385 19.139 31.385 19.131 31.55C18.991 33.9 18.8536 36.2497 18.719 38.599Z" fill="#CDECFE"/>
<path opacity="0.467" d="M21.992 38.517C21.942 41.097 21.892 43.686 21.843 46.266C21.819 47.717 21.786 49.176 21.761 50.627C21.761 50.6599 21.7741 50.6914 21.7973 50.7147C21.8206 50.7379 21.8521 50.751 21.885 50.751C21.9179 50.751 21.9494 50.7379 21.9727 50.7147C21.9959 50.6914 22.009 50.6599 22.009 50.627C22.0583 48.0383 22.109 45.45 22.161 42.862L22.315 35.12C22.34 33.678 22.373 32.227 22.397 30.784C22.398 30.7511 22.386 30.7192 22.3635 30.6952C22.341 30.6712 22.3099 30.6571 22.277 30.656C22.2441 30.6549 22.2121 30.667 22.1881 30.6895C22.1641 30.712 22.15 30.7431 22.149 30.776C22.0997 33.356 22.0473 35.9363 21.992 38.517Z" fill="#CDECFE"/>
<path opacity="0.467" d="M25.852 38.492C25.894 41.135 25.943 43.784 25.984 46.435C26.009 47.927 26.034 49.428 26.058 50.92C26.058 50.9529 26.071 50.9844 26.0943 51.0077C26.1175 51.0309 26.1491 51.044 26.182 51.044C26.2149 51.044 26.2464 51.0309 26.2697 51.0077C26.2929 50.9844 26.306 50.9529 26.306 50.92C26.266 48.269 26.22 45.623 26.175 42.976C26.13 40.329 26.084 37.684 26.042 35.035C26.02 33.545 25.993 32.045 25.968 30.552C25.968 30.5191 25.9549 30.4876 25.9317 30.4643C25.9084 30.4411 25.8769 30.428 25.844 30.428C25.8111 30.428 25.7795 30.4411 25.7563 30.4643C25.733 30.4876 25.72 30.5191 25.72 30.552C25.761 33.199 25.811 35.845 25.852 38.492Z" fill="#CDECFE"/>
<path opacity="0.467" d="M29.572 34.287C29.646 35.587 29.737 36.892 29.82 38.195C29.911 39.514 30.002 40.825 30.109 42.144C30.209 43.444 30.316 44.757 30.431 46.06C30.5383 47.3133 30.654 48.5663 30.778 49.819C30.795 49.967 30.811 50.119 30.819 50.264C30.827 50.409 31.083 50.421 31.067 50.264C30.943 49.019 30.827 47.774 30.72 46.538C30.604 45.238 30.497 43.933 30.398 42.638C30.298 41.319 30.198 40.008 30.109 38.689C30.02 37.37 29.936 36.076 29.853 34.765C29.778 33.512 29.704 32.251 29.638 30.998L29.613 30.553C29.605 30.388 29.357 30.388 29.365 30.544C29.431 31.789 29.497 33.034 29.572 34.287Z" fill="#CDECFE"/>
<path opacity="0.467" d="M33.795 38.278C34.175 40.578 34.5553 42.881 34.936 45.187C35.143 46.44 35.349 47.701 35.556 48.955C35.581 49.112 35.82 49.046 35.796 48.889C35.423 46.621 35.051 44.362 34.676 42.095C34.298 39.795 33.919 37.492 33.539 35.186C33.332 33.929 33.125 32.672 32.919 31.419C32.886 31.262 32.646 31.329 32.676 31.485C33.051 33.752 33.423 36.011 33.795 38.278Z" fill="#CDECFE"/>
<path opacity="0.467" d="M15.09 37.148C14.79 38.448 14.503 39.761 14.222 41.064C14.057 41.814 13.9 42.565 13.74 43.323C13.707 43.48 13.947 43.546 13.98 43.389C14.256 42.062 14.54 40.743 14.834 39.415C15.123 38.115 15.421 36.802 15.71 35.499C15.884 34.749 16.049 33.999 16.21 33.248C16.2117 33.2203 16.2037 33.1928 16.1873 33.1703C16.1709 33.1478 16.1472 33.1318 16.1202 33.125C16.0932 33.1183 16.0647 33.1212 16.0397 33.1332C16.0146 33.1453 15.9945 33.1657 15.983 33.191L15.09 37.148Z" fill="#CDECFE"/>
<path opacity="0.467" d="M37.647 37.42C38.069 38.756 38.498 40.099 38.928 41.435C39.168 42.185 39.416 42.935 39.672 43.677C39.722 43.825 39.961 43.759 39.912 43.611C39.466 42.284 39.036 40.948 38.606 39.611C38.176 38.274 37.754 36.934 37.324 35.598C37.085 34.848 36.834 34.098 36.58 33.356C36.534 33.199 36.291 33.266 36.341 33.422C36.787 34.749 37.217 36.084 37.647 37.42Z" fill="#CDECFE"/>
<path d="M17.058 37.915L13.578 43.447L15.553 43.439L17.058 37.915Z" fill="#224BF4"/>
<path d="M36.804 44.073L38.564 43.922L34.638 37.222L36.804 44.073Z" fill="#224BF4"/>
<path d="M15.537 43.529C15.5165 43.5229 15.4991 43.5094 15.4881 43.491C15.4772 43.4727 15.4736 43.4509 15.478 43.43L17.133 37.313C17.139 37.2925 17.1526 37.2751 17.1709 37.2642C17.1893 37.2532 17.2111 37.2496 17.232 37.254C17.2525 37.2603 17.2698 37.2741 17.2806 37.2926C17.2913 37.3112 17.2947 37.3331 17.29 37.354L15.637 43.472C15.6325 43.4883 15.6228 43.5028 15.6095 43.5132C15.5962 43.5237 15.5799 43.5296 15.563 43.53L15.537 43.529Z" fill="#1F1F39"/>
<path d="M36.647 44.073L34.531 37.218C34.5274 37.2082 34.5259 37.1977 34.5265 37.1873C34.5271 37.1768 34.5298 37.1666 34.5345 37.1573C34.5392 37.1479 34.5457 37.1396 34.5537 37.1329C34.5617 37.1261 34.571 37.1211 34.581 37.118C34.5908 37.1144 34.6012 37.1128 34.6116 37.1134C34.622 37.1139 34.6321 37.1166 34.6415 37.1211C34.6508 37.1257 34.6592 37.1321 34.6659 37.14C34.6727 37.1479 34.6779 37.1571 34.681 37.167L36.804 44.023C36.8076 44.0329 36.8091 44.0433 36.8085 44.0538C36.8079 44.0642 36.8052 44.0744 36.8005 44.0838C36.7958 44.0931 36.7893 44.1014 36.7813 44.1082C36.7733 44.1149 36.764 44.12 36.754 44.123C36.737 44.123 36.729 44.131 36.721 44.131C36.7041 44.1306 36.6878 44.1247 36.6744 44.1142C36.6611 44.1038 36.6515 44.0893 36.647 44.073Z" fill="#1F1F39"/>
<path d="M22.2399 27.947C21.4959 27.782 21.4129 27.37 21.4129 27.37C21.4129 27.37 21.1649 27.865 19.6769 27.7C19.2369 27.6388 18.8212 27.4615 18.4725 27.1862C18.1238 26.911 17.8547 26.5478 17.6929 26.134C17.6929 26.134 15.875 25.804 15.544 24.815C15.3559 24.3733 15.2711 23.8945 15.2959 23.415C14.6324 22.8539 14.217 22.0536 14.1399 21.188C14.2229 20.034 14.64 19.788 14.64 19.788C14.64 19.788 13.9789 19.211 14.1399 18.716C14.1698 18.5863 14.231 18.4659 14.3182 18.3654C14.4054 18.2648 14.5158 18.1871 14.64 18.139C14.64 18.139 12.9009 16.405 13.4789 14.509C14.0569 12.613 15.4609 12.613 15.4609 12.613C15.3967 12.4041 15.4122 12.1788 15.5046 11.9808C15.597 11.7827 15.7596 11.626 15.9609 11.541C16.7049 11.129 17.035 11.211 17.035 11.211C17.035 11.211 16.87 9.15002 17.944 8.65502C18.5609 8.3595 19.2573 8.2728 19.9279 8.40802C19.9279 8.40802 19.845 7.25402 20.589 7.17102C20.7886 7.13883 20.9932 7.16051 21.1816 7.23381C21.3701 7.30712 21.5355 7.4294 21.6609 7.58802C21.6609 7.58802 21.6609 7.25802 22.3219 7.17602C22.983 7.09402 23.0659 7.34102 23.0659 7.34102C23.1159 6.87635 23.3397 6.44774 23.6925 6.14117C24.0452 5.8346 24.5008 5.67273 24.9679 5.68802C25.4059 5.64287 25.8481 5.70996 26.253 5.88299C26.6578 6.05602 27.0119 6.32928 27.2819 6.67702C27.4295 6.44924 27.6432 6.27195 27.8942 6.16884C28.1453 6.06573 28.4219 6.04172 28.6869 6.10002C28.9534 6.13007 29.2001 6.25486 29.3822 6.45164C29.5643 6.64842 29.6696 6.90408 29.679 7.17202C30.0274 6.87547 30.4506 6.68024 30.9023 6.60759C31.3541 6.53494 31.8171 6.58767 32.2409 6.76002C33.9769 7.25502 34.4729 10.305 34.4729 10.305C34.8302 10.2129 35.2079 10.2417 35.547 10.387C36.047 10.634 35.96 11.541 35.96 11.541C36.3801 11.5583 36.7856 11.7009 37.1241 11.9504C37.4627 12.1998 37.7189 12.5448 37.86 12.941C38.191 14.26 37.86 14.755 37.86 14.755C38.279 15.1844 38.5881 15.7087 38.7608 16.2833C38.9336 16.8579 38.9648 17.4657 38.8519 18.055C38.7313 19.0424 38.2974 19.9652 37.614 20.688C37.7977 21.2504 37.7977 21.8567 37.614 22.419C37.5358 22.6239 37.4011 22.8025 37.2255 22.9338C37.0499 23.0652 36.8406 23.144 36.622 23.161C36.622 23.161 36.87 24.315 36.291 24.727C36.1264 24.8475 35.9383 24.9318 35.7389 24.9744C35.5395 25.0169 35.3333 25.0168 35.134 24.974C34.9243 25.5868 34.5768 26.1432 34.1182 26.6006C33.6596 27.0579 33.1023 27.4039 32.489 27.612C31.1232 27.9816 29.6742 27.8967 28.3609 27.37L23.4839 28.112C23.0648 28.0983 22.6481 28.043 22.2399 27.947Z" fill="#F99A3D"/>
<path d="M19.7769 20.198C20.0061 20.2881 20.2229 20.407 20.4219 20.552C20.6325 19.1799 21.2091 17.89 22.0909 16.818C22.5191 16.3649 23.0922 16.0757 23.7111 16.0005C24.33 15.9253 24.9557 16.0687 25.4799 16.406C26.6369 17.313 27.1329 18.797 27.8799 18.385C28.6269 17.973 29.4499 17.148 30.2799 17.808C30.8999 18.303 31.0069 19.828 31.0239 20.553C31.2249 20.4111 31.4413 20.2924 31.6689 20.199C31.9267 20.0939 32.2079 20.06 32.4832 20.1008C32.7586 20.1415 33.0179 20.2555 33.2341 20.4307C33.4504 20.606 33.6156 20.8361 33.7124 21.097C33.8093 21.358 33.8344 21.6401 33.7849 21.914C33.8131 22.2472 33.7566 22.5822 33.6208 22.8877C33.4849 23.1933 33.2741 23.4596 33.0079 23.662C32.2498 23.9627 31.4302 24.0759 30.6189 23.992C30.5093 24.4788 30.3372 24.9494 30.1069 25.392C29.648 26.1478 29.0605 26.8175 28.3709 27.371V29.325L28.5529 31.988C28.3841 32.0706 28.2101 32.1421 28.0319 32.202C27.7942 32.2971 27.5477 32.3688 27.2959 32.416C26.7833 32.5312 26.2594 32.5893 25.7339 32.589C25.2081 32.5975 24.6832 32.5394 24.1719 32.416C23.9193 32.3728 23.6724 32.301 23.4359 32.202C23.2578 32.1421 23.0838 32.0706 22.9149 31.988L23.0969 29.325V27.37C22.406 26.8172 21.8172 26.1478 21.3569 25.392C21.0977 24.974 20.9465 24.498 20.9169 24.007C20.0771 24.1241 19.2213 24.0042 18.4459 23.661C18.1766 23.4609 17.9627 23.1953 17.8246 22.8894C17.6866 22.5835 17.6288 22.2474 17.6569 21.913C17.6064 21.6385 17.6308 21.3554 17.7277 21.0936C17.8245 20.8318 17.9902 20.6009 18.2072 20.4254C18.4242 20.2498 18.6846 20.136 18.9608 20.096C19.2371 20.056 19.519 20.0912 19.7769 20.198Z" fill="#DA5742"/>
<path d="M23.0749 29.332L23.0089 30.355C23.9314 30.279 24.8395 30.0796 25.7089 29.762C26.6523 29.4123 27.5433 28.9348 28.3569 28.343V27.37C26.8689 28.277 23.7279 27.947 23.0749 27.362V29.332Z" fill="#C43D28"/>
<path d="M23.0169 27.42C22.9997 27.4028 22.9894 27.3798 22.988 27.3555C22.9865 27.3312 22.9939 27.3072 23.0089 27.288C23.0169 27.2786 23.0268 27.271 23.0378 27.2655C23.0489 27.26 23.0609 27.2568 23.0732 27.256C23.0855 27.2553 23.0979 27.257 23.1095 27.2611C23.1211 27.2653 23.1318 27.2717 23.1409 27.28C24.0601 27.7434 25.0933 27.9323 26.1169 27.824C26.1289 27.8223 26.1412 27.8231 26.1528 27.8264C26.1645 27.8296 26.1754 27.8353 26.1847 27.8431C26.1941 27.8508 26.2017 27.8604 26.2071 27.8713C26.2126 27.8821 26.2157 27.894 26.2162 27.9061C26.2168 27.9182 26.2148 27.9303 26.2104 27.9416C26.206 27.9529 26.1993 27.9632 26.1907 27.9718C26.1821 27.9803 26.1718 27.987 26.1605 27.9913C26.1491 27.9957 26.137 27.9976 26.1249 27.997C26.002 28.0176 25.8774 28.026 25.7529 28.022C24.802 28.0879 23.8523 27.8789 23.0169 27.42Z" fill="#1F1F39"/>
<path d="M31.1089 20.486C31.1151 21.1906 31.0515 21.894 30.9189 22.586C30.8609 22.96 30.6549 23.66 30.5549 24.023C31.3883 24.1199 32.2326 23.9947 33.0019 23.66C33.2667 23.4564 33.4765 23.1898 33.6122 22.8846C33.7479 22.5793 33.8052 22.245 33.7789 21.912C33.8275 21.6383 33.8018 21.3566 33.7046 21.0962C33.6074 20.8358 33.4422 20.6061 33.2262 20.4312C33.0102 20.2562 32.7513 20.1423 32.4764 20.1013C32.2015 20.0603 31.9206 20.0937 31.6629 20.198C31.4707 20.2787 31.2854 20.375 31.1089 20.486Z" fill="#C43D28"/>
<path d="M21.3399 25.392C21.3479 25.408 21.3639 25.433 21.3729 25.449C21.2899 25.285 21.2069 25.12 21.1329 24.963C21.1909 25.095 21.2569 25.235 21.3399 25.392Z" fill="#C43D28"/>
<path d="M19.7689 20.198C19.511 20.092 19.2293 20.0572 18.9533 20.0975C18.6774 20.1379 18.4174 20.2517 18.2005 20.4271C17.9837 20.6025 17.8181 20.833 17.721 21.0944C17.624 21.3559 17.5991 21.6386 17.6489 21.913C17.6214 22.2464 17.6786 22.5814 17.8151 22.8868C17.9517 23.1922 18.1631 23.4582 18.4299 23.66C19.1826 24.0008 20.0159 24.1235 20.8349 24.014C20.5998 22.8456 20.4232 21.6661 20.3059 20.48C20.1362 20.3693 19.9564 20.2749 19.7689 20.198Z" fill="#C43D28"/>
<path d="M20.5049 23.27C20.4471 22.8684 20.2847 22.4891 20.0339 22.17C19.693 21.7317 19.2256 21.4088 18.6949 21.245C18.673 21.2378 18.6542 21.2232 18.6418 21.2037C18.6294 21.1842 18.6242 21.161 18.6269 21.138C18.6342 21.1157 18.6492 21.0967 18.6691 21.0842C18.689 21.0718 18.7127 21.0668 18.7359 21.07C19.317 21.2345 19.8261 21.5891 20.1819 22.077C20.4565 22.423 20.6296 22.8385 20.6819 23.277C20.6836 23.2887 20.6826 23.3005 20.6791 23.3118C20.6757 23.323 20.6698 23.3333 20.6618 23.342C20.6539 23.3507 20.6442 23.3576 20.6333 23.3621C20.6224 23.3665 20.6107 23.3686 20.5989 23.368C20.5862 23.3683 20.5735 23.366 20.5617 23.3611C20.5499 23.3562 20.5392 23.349 20.5304 23.3397C20.5215 23.3305 20.5147 23.3196 20.5103 23.3076C20.5059 23.2956 20.5041 23.2828 20.5049 23.27Z" fill="#1F1F39"/>
<path d="M30.8609 23.272C30.9171 22.8345 31.0898 22.42 31.3609 22.072C31.7218 21.5915 32.2272 21.2393 32.803 21.067C32.8147 21.0632 32.8271 21.0621 32.8393 21.0637C32.8515 21.0654 32.8632 21.0697 32.8736 21.0764C32.8839 21.0831 32.8926 21.092 32.8991 21.1025C32.9056 21.113 32.9096 21.1248 32.9109 21.137C32.9147 21.1484 32.916 21.1605 32.9146 21.1724C32.9132 21.1843 32.9092 21.1957 32.9029 21.2059C32.8966 21.2161 32.8882 21.2248 32.8782 21.2314C32.8681 21.238 32.8568 21.2423 32.8449 21.244C32.3088 21.4001 31.8385 21.7274 31.5059 22.176C31.2552 22.4951 31.0928 22.8744 31.0349 23.276C31.0366 23.2877 31.0356 23.2995 31.0321 23.3108C31.0287 23.322 31.0228 23.3323 31.0148 23.341C31.0069 23.3497 30.9972 23.3566 30.9863 23.361C30.9754 23.3655 30.9637 23.3676 30.9519 23.367C30.9397 23.3669 30.9276 23.3643 30.9163 23.3595C30.9051 23.3546 30.8949 23.3475 30.8865 23.3387C30.878 23.3298 30.8714 23.3194 30.867 23.3079C30.8626 23.2965 30.8605 23.2843 30.8609 23.272Z" fill="#1F1F39"/>
<path d="M23.067 20.528C23.067 20.528 23.133 19.868 23.613 19.868C24.093 19.868 24.159 20.528 24.159 20.528" fill="white"/>
<path d="M27.257 20.528C27.257 20.528 27.323 19.868 27.803 19.868C28.283 19.868 28.349 20.528 28.349 20.528" fill="white"/>
<path d="M25.7119 21.706C25.6527 21.846 25.6111 21.9928 25.5879 22.143C25.5755 22.2053 25.5873 22.2701 25.6209 22.324C25.6209 22.332 25.6289 22.332 25.6289 22.34L25.6459 22.356C25.6584 22.3661 25.6722 22.3745 25.6869 22.381C25.7135 22.4004 25.7451 22.4118 25.7779 22.414C25.928 22.4237 26.0776 22.3889 26.2079 22.314C26.1564 22.3792 26.0917 22.4327 26.0179 22.471C25.9397 22.5159 25.8499 22.5365 25.7599 22.53C25.714 22.525 25.6695 22.5111 25.6289 22.489C25.6066 22.4803 25.5867 22.4662 25.5709 22.448L25.5459 22.423C25.5357 22.4136 25.5272 22.4024 25.5209 22.39C25.4664 22.3106 25.4446 22.2131 25.4599 22.118C25.4714 22.0321 25.4949 21.9483 25.5299 21.869C25.5549 21.797 25.5959 21.722 25.6289 21.648C25.7031 21.5123 25.792 21.3852 25.8939 21.269C25.8269 21.417 25.7699 21.569 25.7119 21.706Z" fill="#1F1F39"/>
<path d="M25.1329 23.677C25.2306 23.903 25.4003 24.0902 25.6156 24.2096C25.8308 24.329 26.0795 24.3738 26.3229 24.337C27.0329 24.237 27.1169 23.413 27.1169 23.413" fill="white"/>
<path d="M23.6859 22.341C23.5281 22.3231 23.3835 22.2441 23.2831 22.121C23.1828 21.9978 23.1346 21.8403 23.1489 21.682C23.1343 21.5236 23.1824 21.3658 23.2827 21.2424C23.3831 21.1191 23.5279 21.0399 23.6859 21.022C23.844 21.0399 23.9887 21.1191 24.0891 21.2424C24.1895 21.3658 24.2376 21.5236 24.2229 21.682C24.2373 21.8403 24.1891 21.9978 24.0887 22.121C23.9884 22.2441 23.8438 22.3231 23.6859 22.341Z" fill="#1F1F39"/>
<path d="M27.8189 22.341C27.6611 22.3231 27.5165 22.2441 27.4161 22.121C27.3158 21.9978 27.2676 21.8403 27.2819 21.682C27.2673 21.5236 27.3154 21.3658 27.4157 21.2424C27.5161 21.1191 27.6609 21.0399 27.8189 21.022C27.977 21.0399 28.1217 21.1191 28.2221 21.2424C28.3225 21.3658 28.3705 21.5236 28.3559 21.682C28.3703 21.8403 28.3221 21.9978 28.2217 22.121C28.1214 22.2441 27.9768 22.3231 27.8189 22.341Z" fill="#1F1F39"/>
<path d="M30.5966 23.1835C30.5586 23.6279 29.901 23.9349 29.1279 23.8688C28.3547 23.8026 27.7588 23.3883 27.7968 22.944C27.8349 22.4996 28.4924 22.1925 29.2656 22.2587C30.0388 22.3248 30.6346 22.7391 30.5966 23.1835Z" fill="#C43D28"/>
<path d="M23.9004 23.1831C23.8625 23.6273 23.2052 23.9344 22.4323 23.8684C21.6594 23.8025 21.0637 23.3885 21.1016 22.9443C21.1395 22.5 21.7968 22.193 22.5697 22.2589C23.3426 22.3249 23.9383 22.7389 23.9004 23.1831Z" fill="#C43D28"/>
</svg>
